<mxfile host="app.diagrams.net" modified="2021-07-29T11:52:06.087Z" agent="5.0 (Windows NT 10.0; Win64; x64) AppleWebKit/537.36 (KHTML, like Gecko) Chrome/92.0.4515.107 Safari/537.36" etag="IShikNE8nVXcgWMFk4tg" version="14.9.2" type="github">
  <diagram id="z3gh77jGO4xXiB-XP6Hk" name="Page-1">
    <mxGraphModel dx="1287" dy="752" grid="1" gridSize="10" guides="1" tooltips="1" connect="1" arrows="1" fold="1" page="1" pageScale="1" pageWidth="827" pageHeight="1169" math="0" shadow="0">
      <root>
        <mxCell id="0" />
        <mxCell id="1" parent="0" />
        <mxCell id="Uy4Gkt37UgxNFPt20YPH-7" value="" style="group" vertex="1" connectable="0" parent="1">
          <mxGeometry x="-60" y="110" width="777.52" height="340" as="geometry" />
        </mxCell>
        <mxCell id="ENWBabSdbnt1WeymbpNv-3" value="" style="group" parent="Uy4Gkt37UgxNFPt20YPH-7" vertex="1" connectable="0">
          <mxGeometry x="660" y="260" width="117.51999999999998" height="60" as="geometry" />
        </mxCell>
        <mxCell id="ENWBabSdbnt1WeymbpNv-1" value="" style="shape=image;imageAspect=0;aspect=fixed;verticalLabelPosition=bottom;verticalAlign=top;image=https://git-scm.com/images/logos/2color-lightbg@2x.png;" parent="ENWBabSdbnt1WeymbpNv-3" vertex="1">
          <mxGeometry width="117.52" height="40" as="geometry" />
        </mxCell>
        <mxCell id="ENWBabSdbnt1WeymbpNv-2" value="&lt;b&gt;Git Repository&lt;/b&gt;" style="text;html=1;strokeColor=none;fillColor=none;align=center;verticalAlign=middle;whiteSpace=wrap;rounded=0;" parent="ENWBabSdbnt1WeymbpNv-3" vertex="1">
          <mxGeometry x="13.759999999999991" y="40" width="90" height="20" as="geometry" />
        </mxCell>
        <mxCell id="ENWBabSdbnt1WeymbpNv-18" style="edgeStyle=orthogonalEdgeStyle;rounded=0;orthogonalLoop=1;jettySize=auto;html=1;entryX=0.5;entryY=0;entryDx=0;entryDy=0;" parent="Uy4Gkt37UgxNFPt20YPH-7" source="ENWBabSdbnt1WeymbpNv-5" target="ENWBabSdbnt1WeymbpNv-1" edge="1">
          <mxGeometry as="geometry" />
        </mxCell>
        <mxCell id="ENWBabSdbnt1WeymbpNv-23" value="&lt;b&gt;&lt;font style=&quot;font-size: 12px&quot;&gt;1. 설정 값 갱신&lt;br&gt;(Commit/Push)&lt;/font&gt;&lt;/b&gt;" style="edgeLabel;html=1;align=center;verticalAlign=middle;resizable=0;points=[];" parent="ENWBabSdbnt1WeymbpNv-18" vertex="1" connectable="0">
          <mxGeometry x="-0.5267" y="2" relative="1" as="geometry">
            <mxPoint y="-23" as="offset" />
          </mxGeometry>
        </mxCell>
        <mxCell id="ENWBabSdbnt1WeymbpNv-5" value="" style="pointerEvents=1;shadow=0;dashed=0;html=1;strokeColor=none;labelPosition=center;verticalLabelPosition=bottom;verticalAlign=top;align=center;fillColor=#505050;shape=mxgraph.mscae.intune.account_portal" parent="Uy4Gkt37UgxNFPt20YPH-7" vertex="1">
          <mxGeometry x="418.5" width="43" height="50" as="geometry" />
        </mxCell>
        <mxCell id="ENWBabSdbnt1WeymbpNv-20" style="edgeStyle=orthogonalEdgeStyle;rounded=1;orthogonalLoop=1;jettySize=auto;html=1;exitX=1;exitY=0.25;exitDx=0;exitDy=0;entryX=0;entryY=0.25;entryDx=0;entryDy=0;" parent="Uy4Gkt37UgxNFPt20YPH-7" source="ENWBabSdbnt1WeymbpNv-15" target="ENWBabSdbnt1WeymbpNv-1" edge="1">
          <mxGeometry as="geometry" />
        </mxCell>
        <mxCell id="ENWBabSdbnt1WeymbpNv-15" value="&lt;b&gt;Spring Cloud Config Server&lt;/b&gt;" style="rounded=1;whiteSpace=wrap;html=1;fillColor=#dae8fc;strokeColor=#6c8ebf;" parent="Uy4Gkt37UgxNFPt20YPH-7" vertex="1">
          <mxGeometry x="350" y="260" width="180" height="60" as="geometry" />
        </mxCell>
        <mxCell id="ENWBabSdbnt1WeymbpNv-16" value="" style="group;" parent="Uy4Gkt37UgxNFPt20YPH-7" vertex="1" connectable="0">
          <mxGeometry y="240" width="220" height="100" as="geometry" />
        </mxCell>
        <mxCell id="ENWBabSdbnt1WeymbpNv-8" value="" style="rounded=1;whiteSpace=wrap;html=1;fillColor=#f5f5f5;strokeColor=#666666;fontColor=#333333;" parent="ENWBabSdbnt1WeymbpNv-16" vertex="1">
          <mxGeometry width="180" height="60" as="geometry" />
        </mxCell>
        <mxCell id="ENWBabSdbnt1WeymbpNv-9" value="" style="rounded=1;whiteSpace=wrap;html=1;fillColor=#f5f5f5;strokeColor=#666666;fontColor=#333333;" parent="ENWBabSdbnt1WeymbpNv-16" vertex="1">
          <mxGeometry x="20" y="20" width="180" height="60" as="geometry" />
        </mxCell>
        <mxCell id="ENWBabSdbnt1WeymbpNv-10" value="&lt;b&gt;Applicaiton&lt;br&gt;(Spring Cloud Config Client)&lt;/b&gt;" style="rounded=1;whiteSpace=wrap;html=1;fillColor=#f5f5f5;strokeColor=#666666;fontColor=#333333;" parent="ENWBabSdbnt1WeymbpNv-16" vertex="1">
          <mxGeometry x="40" y="40" width="180" height="60" as="geometry" />
        </mxCell>
        <mxCell id="ENWBabSdbnt1WeymbpNv-22" style="edgeStyle=orthogonalEdgeStyle;rounded=1;orthogonalLoop=1;jettySize=auto;html=1;entryX=1;entryY=0.75;entryDx=0;entryDy=0;" parent="Uy4Gkt37UgxNFPt20YPH-7" source="ENWBabSdbnt1WeymbpNv-1" target="ENWBabSdbnt1WeymbpNv-15" edge="1">
          <mxGeometry as="geometry">
            <Array as="points">
              <mxPoint x="595" y="290" />
              <mxPoint x="595" y="305" />
            </Array>
          </mxGeometry>
        </mxCell>
        <mxCell id="ENWBabSdbnt1WeymbpNv-29" style="edgeStyle=orthogonalEdgeStyle;rounded=1;orthogonalLoop=1;jettySize=auto;html=1;exitX=1;exitY=0.25;exitDx=0;exitDy=0;entryX=0;entryY=0.25;entryDx=0;entryDy=0;startArrow=classic;startFill=1;" parent="Uy4Gkt37UgxNFPt20YPH-7" source="ENWBabSdbnt1WeymbpNv-9" target="ENWBabSdbnt1WeymbpNv-15" edge="1">
          <mxGeometry as="geometry" />
        </mxCell>
        <mxCell id="ENWBabSdbnt1WeymbpNv-26" style="edgeStyle=orthogonalEdgeStyle;rounded=1;orthogonalLoop=1;jettySize=auto;html=1;entryX=0.456;entryY=0;entryDx=0;entryDy=0;entryPerimeter=0;" parent="Uy4Gkt37UgxNFPt20YPH-7" source="ENWBabSdbnt1WeymbpNv-5" target="Uy4Gkt37UgxNFPt20YPH-1" edge="1">
          <mxGeometry as="geometry" />
        </mxCell>
        <mxCell id="ENWBabSdbnt1WeymbpNv-27" value="&lt;b&gt;&lt;font style=&quot;font-size: 12px&quot;&gt;2. 갱신 요청 1번&lt;br&gt;(/actuator/refesh)&lt;/font&gt;&lt;/b&gt;" style="edgeLabel;html=1;align=center;verticalAlign=middle;resizable=0;points=[];" parent="ENWBabSdbnt1WeymbpNv-26" vertex="1" connectable="0">
          <mxGeometry x="-0.1235" y="2" relative="1" as="geometry">
            <mxPoint x="23" y="-27" as="offset" />
          </mxGeometry>
        </mxCell>
        <mxCell id="ENWBabSdbnt1WeymbpNv-30" style="edgeStyle=orthogonalEdgeStyle;rounded=1;orthogonalLoop=1;jettySize=auto;html=1;exitX=1;exitY=0.25;exitDx=0;exitDy=0;entryX=0;entryY=0.133;entryDx=0;entryDy=0;entryPerimeter=0;startArrow=classic;startFill=1;" parent="Uy4Gkt37UgxNFPt20YPH-7" source="ENWBabSdbnt1WeymbpNv-8" target="ENWBabSdbnt1WeymbpNv-15" edge="1">
          <mxGeometry as="geometry" />
        </mxCell>
        <mxCell id="ENWBabSdbnt1WeymbpNv-32" value="&lt;b&gt;&lt;font style=&quot;font-size: 12px&quot;&gt;4. 설정 값 요청&lt;/font&gt;&lt;/b&gt;" style="edgeLabel;html=1;align=center;verticalAlign=middle;resizable=0;points=[];" parent="ENWBabSdbnt1WeymbpNv-30" vertex="1" connectable="0">
          <mxGeometry x="-0.2022" y="4" relative="1" as="geometry">
            <mxPoint x="17" y="-11" as="offset" />
          </mxGeometry>
        </mxCell>
        <mxCell id="ENWBabSdbnt1WeymbpNv-28" style="rounded=1;orthogonalLoop=1;jettySize=auto;html=1;edgeStyle=orthogonalEdgeStyle;entryX=0;entryY=0.75;entryDx=0;entryDy=0;startArrow=classic;startFill=1;" parent="Uy4Gkt37UgxNFPt20YPH-7" source="ENWBabSdbnt1WeymbpNv-10" target="ENWBabSdbnt1WeymbpNv-15" edge="1">
          <mxGeometry as="geometry" />
        </mxCell>
        <mxCell id="ENWBabSdbnt1WeymbpNv-33" value="&lt;b&gt;5. 설정 탐색&lt;/b&gt;" style="text;html=1;align=center;verticalAlign=middle;resizable=0;points=[];autosize=1;strokeColor=none;" parent="Uy4Gkt37UgxNFPt20YPH-7" vertex="1">
          <mxGeometry x="555" y="240" width="80" height="20" as="geometry" />
        </mxCell>
        <mxCell id="ENWBabSdbnt1WeymbpNv-34" value="&lt;b&gt;6. 최신 설정 Pull&lt;/b&gt;" style="text;html=1;align=center;verticalAlign=middle;resizable=0;points=[];autosize=1;strokeColor=none;" parent="Uy4Gkt37UgxNFPt20YPH-7" vertex="1">
          <mxGeometry x="540" y="310" width="110" height="20" as="geometry" />
        </mxCell>
        <mxCell id="Uy4Gkt37UgxNFPt20YPH-2" style="edgeStyle=orthogonalEdgeStyle;rounded=1;orthogonalLoop=1;jettySize=auto;html=1;entryX=0.5;entryY=0;entryDx=0;entryDy=0;" edge="1" parent="Uy4Gkt37UgxNFPt20YPH-7" source="Uy4Gkt37UgxNFPt20YPH-1" target="ENWBabSdbnt1WeymbpNv-8">
          <mxGeometry relative="1" as="geometry" />
        </mxCell>
        <mxCell id="Uy4Gkt37UgxNFPt20YPH-4" style="edgeStyle=orthogonalEdgeStyle;rounded=1;orthogonalLoop=1;jettySize=auto;html=1;entryX=0.25;entryY=0;entryDx=0;entryDy=0;" edge="1" parent="Uy4Gkt37UgxNFPt20YPH-7" source="Uy4Gkt37UgxNFPt20YPH-1" target="ENWBabSdbnt1WeymbpNv-8">
          <mxGeometry relative="1" as="geometry" />
        </mxCell>
        <mxCell id="Uy4Gkt37UgxNFPt20YPH-5" style="edgeStyle=orthogonalEdgeStyle;rounded=1;orthogonalLoop=1;jettySize=auto;html=1;entryX=0.789;entryY=-0.033;entryDx=0;entryDy=0;entryPerimeter=0;" edge="1" parent="Uy4Gkt37UgxNFPt20YPH-7" source="Uy4Gkt37UgxNFPt20YPH-1" target="ENWBabSdbnt1WeymbpNv-8">
          <mxGeometry relative="1" as="geometry" />
        </mxCell>
        <mxCell id="Uy4Gkt37UgxNFPt20YPH-1" value="&lt;b&gt;Spring Cloud Bus&lt;br&gt;(Kafka)&lt;br&gt;&lt;/b&gt;" style="rounded=1;whiteSpace=wrap;html=1;fillColor=#fff2cc;strokeColor=#d6b656;" vertex="1" parent="Uy4Gkt37UgxNFPt20YPH-7">
          <mxGeometry y="70" width="180" height="60" as="geometry" />
        </mxCell>
        <mxCell id="Uy4Gkt37UgxNFPt20YPH-3" value="&lt;b&gt;3. 갱신 통보&lt;/b&gt;" style="text;html=1;align=center;verticalAlign=middle;resizable=0;points=[];autosize=1;strokeColor=none;" vertex="1" parent="Uy4Gkt37UgxNFPt20YPH-7">
          <mxGeometry x="90" y="140" width="80" height="20" as="geometry" />
        </mxCell>
        <mxCell id="Uy4Gkt37UgxNFPt20YPH-6" value="&lt;b&gt;&lt;font style=&quot;font-size: 12px&quot;&gt;7. 설정 값 응답&amp;nbsp;&lt;/font&gt;&lt;/b&gt;" style="edgeLabel;html=1;align=center;verticalAlign=middle;resizable=0;points=[];" vertex="1" connectable="0" parent="Uy4Gkt37UgxNFPt20YPH-7">
          <mxGeometry x="280" y="260" as="geometry">
            <mxPoint x="-4" y="69" as="offset" />
          </mxGeometry>
        </mxCell>
      </root>
    </mxGraphModel>
  </diagram>
</mxfile>
